<svg width="24" height="24" viewBox="0 0 24 24" fill="none" xmlns="http://www.w3.org/2000/svg">
<path fill-rule="evenodd" clip-rule="evenodd" d="M11.6745 0.0524676C11.3078 0.222254 11.1987 0.469921 11.1987 1.13284V1.62351L10.8344 1.65652C10.634 1.6747 10.2059 1.74432 9.88308 1.81128C6.75124 2.46077 4.06168 4.54944 2.65492 7.42463C2.13587 8.48552 1.74823 9.8088 1.65142 10.8501L1.61937 11.1952L1.05374 11.2118C0.441987 11.2298 0.334261 11.2711 0.108591 11.5733C-0.0361969 11.7672 -0.0361969 12.2423 0.108591 12.4363C0.334261 12.7385 0.441988 12.7798 1.05399 12.7978L1.61992 12.8145L1.65257 13.1746C1.74407 14.1843 2.14017 15.5308 2.65657 16.5875C4.05947 19.4583 6.75234 21.5491 9.88308 22.1983C10.2059 22.2653 10.6321 22.3347 10.8302 22.3527L11.1904 22.3853L11.207 22.9513C11.2211 23.4285 11.2399 23.5389 11.327 23.6554C11.5234 23.9181 11.6834 24 12 24C12.3166 24 12.4766 23.9181 12.673 23.6554C12.7601 23.5389 12.7789 23.4285 12.793 22.9515L12.8096 22.3859L13.1546 22.3538C14.1986 22.2568 15.5344 21.8656 16.5825 21.3501C19.4649 19.9322 21.5436 17.2542 22.1931 14.1218C22.26 13.799 22.3295 13.3728 22.3474 13.1746L22.3801 12.8145L22.946 12.7978C23.558 12.7798 23.6657 12.7385 23.8914 12.4363C24.0362 12.2423 24.0362 11.7672 23.8914 11.5733C23.6657 11.2711 23.558 11.2298 22.946 11.2118L22.3801 11.1951L22.3474 10.835C22.2559 9.82528 21.8598 8.47881 21.3434 7.42208C20.1328 4.94466 17.9577 3.03294 15.3315 2.13818C14.6896 1.91946 13.753 1.71111 13.1686 1.65697L12.8096 1.62371L12.793 1.05806C12.775 0.449336 12.7331 0.338049 12.4389 0.118379C12.2729 -0.00553012 11.874 -0.0399381 11.6745 0.0524676ZM11.2066 3.76242C11.2251 4.32627 11.2719 4.44281 11.5685 4.66433C11.7625 4.80913 12.2375 4.80913 12.4315 4.66433C12.7288 4.44231 12.7749 4.32682 12.7935 3.75646L12.8108 3.22817L13.119 3.26227C14.3837 3.40211 15.8132 3.95163 17.0016 4.75484C17.7246 5.24351 18.7597 6.27785 19.2447 6.99636C19.9532 8.04598 20.4553 9.25391 20.6635 10.41C20.8174 11.2648 20.856 11.1913 20.242 11.2114C19.6782 11.2298 19.5617 11.2766 19.3401 11.5733C19.1954 11.7672 19.1954 12.2423 19.3401 12.4363C19.5617 12.733 19.6782 12.7798 20.242 12.7982C20.856 12.8183 20.8174 12.7448 20.6635 13.5996C20.4553 14.7557 19.9532 15.9636 19.2447 17.0132C18.7609 17.7299 17.7245 18.7662 17.0052 19.2523C15.9575 19.9603 14.7551 20.4597 13.5947 20.6686C12.74 20.8225 12.8134 20.8612 12.7934 20.2472C12.7749 19.6833 12.7281 19.5668 12.4315 19.3453C12.2375 19.2005 11.7625 19.2005 11.5685 19.3453C11.2719 19.5668 11.2251 19.6833 11.2066 20.2472C11.1866 20.8612 11.26 20.8225 10.4053 20.6686C9.23036 20.457 7.89757 19.8928 6.89162 19.181C6.21816 18.7045 5.20014 17.6704 4.75086 17.0066C3.94804 15.8203 3.39779 14.3894 3.25786 13.1239L3.22375 12.8156L3.75202 12.7983C4.32235 12.7798 4.43784 12.7337 4.65986 12.4363C4.80465 12.2423 4.80465 11.7672 4.65986 11.5733C4.43784 11.2759 4.32235 11.2298 3.75202 11.2113L3.22375 11.194L3.25786 10.8857C3.35151 10.0388 3.68901 8.93082 4.1093 8.09046C5.15482 6.00003 7.04522 4.35947 9.23366 3.64322C9.88393 3.43041 10.6398 3.26373 11.0314 3.24685L11.1896 3.24004L11.2066 3.76242ZM11.0985 6.47238C8.73003 6.84681 6.82551 8.7703 6.46367 11.1534C5.999 14.2132 8.1004 17.0784 11.1486 17.5414C12.3279 17.7205 13.39 17.5523 14.4791 17.014C17.7937 15.3758 18.636 11.125 16.2055 8.30096C14.9868 6.88483 12.9966 6.17227 11.0985 6.47238Z" fill="lightgray"/>
</svg>
